<svg width="120" height="23" viewBox="0 0 120 23" fill="none" xmlns="http://www.w3.org/2000/svg">
<path d="M68.8344 16.8452C68.8344 17.2808 68.7576 17.6134 68.4492 17.6134C68.166 17.6134 68.0892 17.2808 68.0892 16.8452V11.9129H64.4412V16.2038C64.4412 18.6114 66.0336 20.0197 68.448 20.0197C70.8876 20.0197 72.4548 18.6114 72.4548 16.2038V4.69992H68.8332V16.8452H68.8344Z" fill="#0D0E10"/>
<path d="M27.816 11.6413L26.3004 10.5404C25.7868 10.1312 25.53 9.87392 25.53 9.13204V7.69734C25.53 7.23666 25.5816 6.90281 25.89 6.90281C26.1984 6.90281 26.2488 7.23546 26.2488 7.69734V10.1563H29.5116V7.97974C29.5116 5.85341 28.176 4.49649 25.9152 4.49649C23.6808 4.49649 22.062 5.77683 22.062 8.08264V9.69563C22.062 11.0274 22.6788 11.9237 23.706 12.6919L25.3248 13.8442C25.8636 14.3049 26.07 14.5873 26.07 15.1508V16.8416C26.07 17.2772 25.9932 17.6098 25.6848 17.6098C25.4016 17.6098 25.2996 17.2772 25.2996 16.8416V14.2032H22.062V16.6107C22.062 18.6855 23.3724 20.0173 25.71 20.0173C27.9708 20.0173 29.5368 18.865 29.5368 16.5592V14.8433C29.5368 13.3584 28.9968 12.4609 27.816 11.6413Z" fill="#0D0E10"/>
<path d="M34.0404 4.47018C31.728 4.47018 30.264 5.82711 30.264 7.97976V10.1563H33.6036V7.85172C33.6036 7.31326 33.6552 6.98061 33.9888 6.98061C34.2972 6.98061 34.3488 7.31326 34.3488 7.85172C34.3488 10.4387 34.0404 10.5668 32.1912 11.7191C30.6504 12.6919 30.1104 13.4098 30.1104 15.0492V17.3286C30.1104 18.9931 30.8544 19.9156 32.1912 19.9156C33.372 19.9156 34.2972 19.3269 34.4256 17.5081V17.7642C34.4256 19.3006 35.1444 19.7876 36.198 19.7876H37.8168V8.36506C37.8156 6.51873 37.2252 4.47018 34.0404 4.47018ZM34.4004 16.8919C34.4004 17.3789 34.272 17.7115 33.9888 17.7115C33.6804 17.7115 33.6288 17.4304 33.6288 16.8668V14.4329C33.6288 13.6898 33.6288 13.1011 33.9372 12.4861C34.1172 12.23 34.2972 12.102 34.4004 11.8974V16.8919Z" fill="#0D0E10"/>
<path d="M44.4456 4.4953C43.1616 4.4953 42.4164 5.39154 42.1848 6.82624V2.46231H38.5632V19.8115H42.1848V7.46641C42.1848 7.08231 42.3396 6.85137 42.5964 6.85137C42.8532 6.85137 42.9816 7.08231 42.9816 7.46641V19.8115H46.6032V6.9806C46.6032 5.6488 45.858 4.4953 44.4456 4.4953Z" fill="#0D0E10"/>
<path d="M51.1284 4.47018C48.816 4.47018 47.352 5.82711 47.352 7.97976V10.1563H50.6916V7.85172C50.6916 7.31326 50.7432 6.98061 51.0768 6.98061C51.3852 6.98061 51.4368 7.31326 51.4368 7.85172C51.4368 10.4387 51.1284 10.5668 49.2792 11.7191C47.7384 12.6919 47.1984 13.4098 47.1984 15.0492V17.3286C47.1984 18.9931 47.9424 19.9156 49.2792 19.9156C50.46 19.9156 51.3852 19.3269 51.5136 17.5081V17.7642C51.5136 19.3006 52.2324 19.7876 53.286 19.7876H54.9048V8.36506C54.9036 6.51873 54.3132 4.47018 51.1284 4.47018ZM51.4884 16.8919C51.4884 17.3789 51.36 17.7115 51.0768 17.7115C50.7684 17.7115 50.7168 17.4304 50.7168 16.8668V14.4329C50.7168 13.6898 50.7168 13.1011 51.0252 12.4861C51.2052 12.23 51.3852 12.102 51.4884 11.8974V16.8919Z" fill="#0D0E10"/>
<path d="M61.5312 4.4953C60.2472 4.4953 59.502 5.39154 59.2704 6.82624V4.69991H55.65V19.8115H59.2716V7.46641C59.2716 7.08231 59.4264 6.85137 59.6832 6.85137C59.94 6.85137 60.0684 7.08231 60.0684 7.46641V19.8115H63.69V6.9806C63.6888 5.6488 62.9436 4.4953 61.5312 4.4953Z" fill="#0D0E10"/>
<path d="M77.2116 4.4953C74.7972 4.4953 73.2048 5.90368 73.2048 8.33752V16.2003C73.2048 18.6078 74.7972 20.0161 77.2116 20.0161C79.6512 20.0161 81.2184 18.6078 81.2184 16.2003V8.33752C81.2184 5.90487 79.6512 4.4953 77.2116 4.4953ZM77.5968 16.8416C77.5968 17.2772 77.52 17.6098 77.2116 17.6098C76.9284 17.6098 76.8516 17.2772 76.8516 16.8416V7.69735C76.8516 7.23667 76.9284 6.90282 77.2116 6.90282C77.52 6.90282 77.5968 7.23547 77.5968 7.69735V16.8416Z" fill="#0D0E10"/>
<path d="M86.358 17.0462C86.358 17.4303 86.2044 17.6613 85.9476 17.6613C85.6908 17.6613 85.5876 17.4303 85.5876 17.0462V4.70111H81.966V17.5332C81.966 18.865 82.7112 20.0173 84.0984 20.0173C85.4076 20.0173 86.1276 19.1211 86.358 17.6864V19.8127H89.9796V4.70111H86.358V17.0462Z" fill="#0D0E10"/>
<path d="M96.5352 4.4953C95.2512 4.4953 94.5576 5.41786 94.3512 6.82624V4.69991H90.7296V19.8115H94.3512V7.46641C94.3512 7.08231 94.506 6.85137 94.7364 6.85137C94.9932 6.85137 95.07 7.08231 95.07 7.46641V11.7956H98.5368V6.92915C98.538 5.57103 97.896 4.4953 96.5352 4.4953Z" fill="#0D0E10"/>
<path d="M105.167 4.4953C103.883 4.4953 103.138 5.39154 102.906 6.82624V4.69991H99.2844V19.8115H102.906V7.46641C102.906 7.08231 103.061 6.85137 103.318 6.85137C103.574 6.85137 103.703 7.08231 103.703 7.46641V19.8115H107.324V6.9806C107.324 5.6488 106.579 4.4953 105.167 4.4953Z" fill="#0D0E10"/>
<path d="M111.85 4.47018C109.537 4.47018 108.073 5.82711 108.073 7.97976V10.1563H111.413V7.85172C111.413 7.31326 111.464 6.98061 111.798 6.98061C112.106 6.98061 112.158 7.31326 112.158 7.85172C112.158 10.4387 111.85 10.5668 110 11.7191C108.46 12.6919 107.92 13.4098 107.92 15.0492V17.3286C107.92 18.9931 108.664 19.9156 110 19.9156C111.181 19.9156 112.106 19.3269 112.235 17.5081V17.7642C112.235 19.3006 112.954 19.7876 114.007 19.7876H115.626V8.36506C115.625 6.51873 115.034 4.47018 111.85 4.47018ZM112.208 16.8919C112.208 17.3789 112.08 17.7115 111.798 17.7115C111.49 17.7115 111.438 17.4304 111.438 16.8668V14.4329C111.438 13.6898 111.438 13.1011 111.746 12.4861C111.926 12.23 112.106 12.102 112.208 11.8974V16.8919Z" fill="#0D0E10"/>
<path d="M120 2.4635H116.378V19.8127H120V2.4635Z" fill="#0D0E10"/>
<path d="M3.8916 4.51685C1.7424 4.51685 0 6.25428 0 8.39736C0 10.5404 1.7424 12.2779 3.8916 12.2779H7.7832L5.544 10.0462C4.4712 8.9765 4.4712 7.24385 5.544 6.17411C6.6168 5.10437 8.3556 5.10437 9.4272 6.17411L15.5652 12.2946V4.51804H3.8916V4.51685Z" fill="#0D0E10"/>
<path d="M11.6736 12.2779H7.782L10.0212 14.5095C11.094 15.5792 11.094 17.3119 10.0212 18.3816C8.9484 19.4514 7.2096 19.4514 6.138 18.3816L0 12.2611V20.0377H11.6736C13.8228 20.0377 15.5652 18.3003 15.5652 16.1572C15.5652 14.0153 13.8228 12.2779 11.6736 12.2779Z" fill="#0D0E10"/>
</svg>
